<?xml version="1.0" standalone="no"?>
<!DOCTYPE svg PUBLIC "-//W3C//DTD SVG 20010904//EN"
 "http://www.w3.org/TR/2001/REC-SVG-20010904/DTD/svg10.dtd">
<svg version="1.0" xmlns="http://www.w3.org/2000/svg"
 width="1280.000000pt" height="640.000000pt" viewBox="0 0 1280.000000 640.000000"
 preserveAspectRatio="xMidYMid meet">
<metadata>
Created by potrace 1.15, written by Peter Selinger 2001-2017
</metadata>
<g transform="translate(0.000000,640.000000) scale(0.100000,-0.100000)"
fill="#000000" stroke="none">
<path d="M2147 4414 c-391 -70 -719 -351 -877 -749 -32 -82 -62 -226 -59 -290
2 -29 -7 -54 -30 -94 -159 -267 -348 -443 -534 -496 -144 -41 -283 -9 -373 87
-72 77 -89 124 -89 248 0 119 18 176 89 283 l38 57 34 -30 c96 -84 233 -124
404 -118 110 5 300 42 300 59 0 4 -19 36 -43 70 -50 75 -99 111 -185 136 -34
10 -61 20 -59 23 26 44 49 114 62 189 9 50 23 110 31 133 8 22 14 42 14 44 0
2 -26 4 -57 4 -31 0 -95 7 -142 16 -47 9 -105 14 -128 11 l-43 -5 0 60 c0 94
-17 143 -69 199 l-46 49 -52 -67 c-64 -81 -116 -185 -139 -273 -22 -84 -22
-218 0 -292 l16 -57 -52 -68 c-94 -125 -157 -291 -158 -419 -1 -292 231 -534
511 -534 l58 0 -24 -43 c-41 -72 -58 -160 -46 -228 11 -67 50 -145 91 -184 35
-33 100 -45 119 -21 19 23 6 80 -28 119 -42 48 -53 75 -53 129 0 101 109 259
221 318 123 66 273 205 379 353 34 48 36 49 43 26 104 -360 230 -604 402 -782
305 -314 729 -390 1112 -199 93 46 147 84 226 158 80 75 152 106 254 107 93 2
139 -13 230 -76 152 -104 176 -113 195 -77 15 28 -7 99 -39 128 -55 49 -170
119 -227 138 -41 13 -87 19 -152 19 -78 0 -91 2 -86 15 4 8 20 53 37 100 35
100 46 231 27 323 -38 184 -196 348 -393 408 -55 17 -67 24 -62 38 19 44 16
104 -10 212 -21 90 -26 128 -22 182 3 37 5 67 4 67 -1 0 -30 -9 -65 -20 -34
-11 -117 -29 -184 -40 -66 -12 -135 -27 -152 -34 -36 -16 -91 -72 -100 -103
-7 -21 -10 -19 -54 27 -69 71 -109 79 -237 49 -68 -16 -130 -24 -192 -24 -51
0 -93 -4 -93 -8 0 -4 9 -33 19 -65 10 -31 28 -112 40 -180 29 -165 50 -206
130 -247 l33 -17 -37 -31 c-43 -35 -74 -97 -75 -145 0 -18 12 -79 26 -135 20
-80 25 -119 22 -178 l-5 -77 56 19 c31 11 108 29 171 40 63 11 131 25 150 31
53 16 99 55 122 103 l21 44 28 -38 c68 -94 134 -108 310 -66 90 21 127 26 177
21 34 -4 62 -5 62 -3 0 1 -9 29 -20 60 -11 32 -29 111 -40 177 -11 66 -23 126
-26 135 -9 22 7 19 57 -14 178 -113 224 -295 128 -510 -61 -136 -145 -238
-256 -311 -259 -171 -597 -170 -848 3 -249 172 -431 502 -521 949 -20 101 -25
147 -20 195 23 224 181 482 396 645 82 63 222 131 325 159 107 29 340 32 462
6 234 -50 501 -172 588 -270 112 -123 164 -232 331 -682 149 -404 258 -593
439 -764 142 -135 359 -215 575 -214 95 0 129 5 192 25 167 55 309 168 398
318 43 71 49 77 124 115 74 37 84 40 165 40 107 0 159 -23 240 -106 38 -39 74
-64 110 -79 68 -27 85 -21 78 25 -12 71 -130 201 -230 251 -108 55 -256 63
-360 19 l-37 -15 6 53 c16 138 -42 300 -143 401 -65 64 -181 127 -271 145 -46
10 -63 20 -112 70 -64 65 -180 129 -285 157 -69 18 -325 32 -325 17 0 -5 7
-33 16 -63 28 -94 80 -157 166 -201 l39 -20 -36 -42 c-20 -23 -57 -84 -81
-136 -25 -52 -54 -107 -65 -122 -25 -35 -25 -36 14 -44 17 -4 76 -27 131 -52
54 -25 118 -48 142 -51 24 -2 44 -5 44 -6 0 0 -7 -23 -15 -50 -24 -79 -20
-162 12 -223 14 -29 29 -53 32 -53 20 0 175 137 215 191 91 119 143 271 134
385 -3 30 -2 54 1 54 3 0 29 -13 57 -30 94 -54 142 -134 151 -253 11 -146 -44
-287 -157 -398 -111 -110 -236 -156 -395 -146 -167 11 -311 73 -424 181 -142
138 -245 323 -378 680 -137 372 -188 490 -249 588 -13 21 -24 39 -24 41 0 1
25 3 55 4 160 4 258 82 338 271 33 76 36 141 8 166 -12 11 -27 15 -40 11 -21
-6 -71 -60 -71 -76 0 -5 -16 -42 -36 -82 -62 -125 -106 -157 -221 -157 -85 0
-156 19 -208 54 -99 69 -321 167 -474 212 -182 53 -426 68 -594 38z"/>
<path d="M9007 4412 c-25 -27 -21 -92 10 -164 80 -189 178 -267 338 -271 30
-1 55 -3 55 -4 0 -2 -11 -20 -24 -41 -61 -98 -112 -216 -249 -588 -133 -357
-236 -542 -378 -680 -113 -108 -257 -170 -424 -181 -159 -10 -284 36 -395 146
-113 111 -168 252 -157 398 9 119 57 199 151 253 28 17 54 30 57 30 3 0 4 -24
1 -54 -9 -114 43 -266 134 -385 40 -54 195 -191 215 -191 3 0 18 24 32 53 32
61 36 144 12 223 -8 27 -15 50 -15 50 0 1 20 4 44 6 24 3 88 26 142 51 55 25
114 48 132 52 38 8 38 9 13 44 -11 15 -40 70 -65 122 -24 52 -61 113 -81 136
l-36 42 39 20 c86 44 138 107 166 201 9 30 16 58 16 63 0 15 -256 1 -325 -17
-105 -28 -221 -92 -285 -157 -49 -50 -66 -60 -112 -70 -90 -18 -206 -81 -271
-145 -101 -101 -159 -263 -143 -401 l6 -53 -37 15 c-104 44 -252 36 -360 -19
-100 -50 -218 -180 -230 -251 -7 -46 10 -52 78 -25 36 15 72 40 110 79 81 83
133 106 240 106 81 0 91 -3 165 -40 75 -38 81 -44 124 -115 89 -150 231 -263
398 -318 63 -20 97 -25 192 -25 143 -1 251 25 396 93 81 38 117 62 179 121
181 171 290 360 439 764 167 450 219 559 331 682 52 58 151 117 299 178 210
87 322 110 521 109 177 -1 257 -19 400 -88 243 -119 446 -355 524 -609 35
-116 37 -177 7 -325 -90 -447 -272 -777 -521 -949 -251 -173 -589 -174 -848
-3 -83 54 -127 99 -186 186 -177 263 -155 500 58 635 50 33 66 36 57 14 -3 -9
-15 -69 -26 -135 -11 -66 -29 -145 -40 -177 -11 -31 -20 -59 -20 -60 0 -2 28
-1 63 3 49 5 86 0 176 -21 176 -42 242 -28 310 66 l28 38 21 -44 c23 -48 69
-87 122 -103 19 -6 87 -20 150 -31 63 -11 140 -29 171 -40 l56 -19 -5 77 c-3
59 2 98 22 178 14 56 26 117 26 135 -1 48 -32 110 -75 145 l-37 31 33 17 c80
41 101 82 130 247 12 68 30 149 40 180 10 32 19 61 19 65 0 4 -42 8 -92 8 -63
0 -125 8 -193 24 -128 30 -168 22 -237 -49 -44 -46 -47 -48 -54 -27 -9 31 -64
87 -100 103 -17 7 -86 22 -152 34 -67 11 -150 29 -184 40 -35 11 -64 20 -65
20 -1 0 1 -30 4 -67 4 -54 -1 -92 -22 -182 -26 -108 -29 -168 -10 -212 5 -14
-7 -21 -62 -38 -197 -60 -355 -224 -393 -408 -19 -92 -8 -223 27 -323 17 -47
33 -92 37 -100 5 -13 -8 -15 -86 -15 -65 0 -111 -6 -152 -19 -57 -19 -172 -89
-227 -138 -32 -29 -54 -100 -39 -128 19 -36 43 -27 195 77 91 63 137 78 230
76 102 -1 174 -32 254 -107 341 -319 832 -349 1211 -73 230 168 404 462 529
896 7 23 9 22 43 -26 106 -148 256 -287 379 -353 112 -59 221 -217 221 -318 0
-54 -11 -81 -53 -129 -34 -39 -47 -96 -28 -119 19 -24 84 -12 119 21 41 39 80
117 91 184 12 68 -5 156 -46 228 l-24 43 58 0 c131 0 256 53 354 151 102 101
157 237 157 383 -1 128 -64 294 -158 419 l-52 68 16 57 c22 74 22 208 0 292
-23 88 -75 192 -139 273 l-52 67 -46 -49 c-52 -56 -69 -105 -69 -199 l0 -60
-43 5 c-23 3 -81 -2 -128 -11 -47 -9 -111 -16 -142 -16 -31 0 -57 -2 -57 -4 0
-2 6 -22 14 -44 8 -23 22 -83 31 -133 13 -75 36 -145 62 -189 2 -3 -25 -13
-59 -23 -86 -25 -135 -61 -185 -136 -24 -34 -43 -66 -43 -70 0 -17 190 -54
300 -59 171 -6 308 34 404 118 l34 30 38 -57 c71 -107 89 -164 89 -283 0 -124
-17 -171 -89 -248 -90 -96 -229 -128 -373 -87 -186 53 -375 229 -534 496 -23
40 -32 65 -30 94 4 101 -44 277 -116 418 -71 141 -219 317 -353 418 -93 71
-266 154 -385 185 -182 47 -423 44 -630 -8 -156 -39 -410 -148 -520 -224 -52
-35 -123 -54 -208 -54 -77 0 -120 15 -159 56 -25 27 -87 143 -102 191 -8 25
-61 73 -80 73 -7 0 -20 -8 -29 -18z"/>
</g>
</svg>
